<svg xmlns="http://www.w3.org/2000/svg" version="1.1" xmlns:xlink="http://www.w3.org/1999/xlink" xmlns:svgjs="http://svgjs.dev/svgjs" viewBox="0 0 1422 800"><defs><radialGradient id="cccircular-grad" r="50%" cx="50%" cy="50%">
          <stop offset="50%" stop-color="hsl(205, 69%, 50%)" stop-opacity="0.5"></stop>
          <stop offset="100%" stop-color="#0061a5" stop-opacity="0.5"></stop>
        </radialGradient></defs><g fill="url(#cccircular-grad)"><circle r="13986" cx="711" cy="400"></circle><circle r="13819.5" cx="711" cy="400"></circle><circle r="13653" cx="711" cy="400"></circle><circle r="13486.5" cx="711" cy="400"></circle><circle r="13320" cx="711" cy="400"></circle><circle r="13153.5" cx="711" cy="400"></circle><circle r="12987" cx="711" cy="400"></circle><circle r="12820.5" cx="711" cy="400"></circle><circle r="12654" cx="711" cy="400"></circle><circle r="12487.5" cx="711" cy="400"></circle><circle r="12321" cx="711" cy="400"></circle><circle r="12154.5" cx="711" cy="400"></circle><circle r="11988" cx="711" cy="400"></circle><circle r="11821.5" cx="711" cy="400"></circle><circle r="11655" cx="711" cy="400"></circle><circle r="11488.5" cx="711" cy="400"></circle><circle r="11322" cx="711" cy="400"></circle><circle r="11155.5" cx="711" cy="400"></circle><circle r="10989" cx="711" cy="400"></circle><circle r="10822.5" cx="711" cy="400"></circle><circle r="10656" cx="711" cy="400"></circle><circle r="10489.5" cx="711" cy="400"></circle><circle r="10323" cx="711" cy="400"></circle><circle r="10156.5" cx="711" cy="400"></circle><circle r="9990" cx="711" cy="400"></circle><circle r="9823.5" cx="711" cy="400"></circle><circle r="9657" cx="711" cy="400"></circle><circle r="9490.5" cx="711" cy="400"></circle><circle r="9324" cx="711" cy="400"></circle><circle r="9157.5" cx="711" cy="400"></circle><circle r="8991" cx="711" cy="400"></circle><circle r="8824.5" cx="711" cy="400"></circle><circle r="8658" cx="711" cy="400"></circle><circle r="8491.5" cx="711" cy="400"></circle><circle r="8325" cx="711" cy="400"></circle><circle r="8158.5" cx="711" cy="400"></circle><circle r="7992" cx="711" cy="400"></circle><circle r="7825.5" cx="711" cy="400"></circle><circle r="7659" cx="711" cy="400"></circle><circle r="7492.5" cx="711" cy="400"></circle><circle r="7326" cx="711" cy="400"></circle><circle r="7159.5" cx="711" cy="400"></circle><circle r="6993" cx="711" cy="400"></circle><circle r="6826.5" cx="711" cy="400"></circle><circle r="6660" cx="711" cy="400"></circle><circle r="6493.5" cx="711" cy="400"></circle><circle r="6327" cx="711" cy="400"></circle><circle r="6160.5" cx="711" cy="400"></circle><circle r="5994" cx="711" cy="400"></circle><circle r="5827.5" cx="711" cy="400"></circle><circle r="5661" cx="711" cy="400"></circle><circle r="5494.5" cx="711" cy="400"></circle><circle r="5328" cx="711" cy="400"></circle><circle r="5161.5" cx="711" cy="400"></circle><circle r="4995" cx="711" cy="400"></circle><circle r="4828.5" cx="711" cy="400"></circle><circle r="4662" cx="711" cy="400"></circle><circle r="4495.5" cx="711" cy="400"></circle><circle r="4329" cx="711" cy="400"></circle><circle r="4162.5" cx="711" cy="400"></circle><circle r="3996" cx="711" cy="400"></circle><circle r="3829.5" cx="711" cy="400"></circle><circle r="3663" cx="711" cy="400"></circle><circle r="3496.5" cx="711" cy="400"></circle><circle r="3330" cx="711" cy="400"></circle><circle r="3163.5" cx="711" cy="400"></circle><circle r="2997" cx="711" cy="400"></circle><circle r="2830.5" cx="711" cy="400"></circle><circle r="2664" cx="711" cy="400"></circle><circle r="2497.5" cx="711" cy="400"></circle><circle r="2331" cx="711" cy="400"></circle><circle r="2164.5" cx="711" cy="400"></circle><circle r="1998" cx="711" cy="400"></circle><circle r="1831.5" cx="711" cy="400"></circle><circle r="1665" cx="711" cy="400"></circle><circle r="1498.5" cx="711" cy="400"></circle><circle r="1332" cx="711" cy="400"></circle><circle r="1165.5" cx="711" cy="400"></circle><circle r="999" cx="711" cy="400"></circle><circle r="832.5" cx="711" cy="400"></circle><circle r="666" cx="711" cy="400"></circle><circle r="499.5" cx="711" cy="400"></circle><circle r="333" cx="711" cy="400"></circle></g></svg>